# xmcd
#
# Track frame offsets: 
#        150
#        22515
#        40955
#        62912
#        83451
#        99166
#        123747
#        139844
#        160955
#        177140
#        189873
#        205608
#        224344
#        245498
#
# Disc length: 3513 seconds
#
# Revision: 2
# Processed by: cddbd v1.5PL3 Copyright (c) Steve Scherf et al.
# Submitted via: ExactAudioCopy v0.90b4
#
DISCID=b10db70e
DTITLE=Kenny Chesney - When The Sun Goes Down
DYEAR=2004
DGENRE=Country
TTITLE0=There Goes My Life
TTITLE1=I Go Back
TTITLE2=When The Sun Goes Down (Uncle Kracker)
TTITLE3=The Woman With You
TTITLE4=Some People Change
TTITLE5=Anything But Mine
TTITLE6=Keg In The Closet
TTITLE7=When I Think About Everything
TTITLE8=Being Drunk's A Lot Like Loving You
TTITLE9=Outta Here
TTITLE10=Old Blue Chair
TTITLE11=Live Those Songs (Live)
TTITLE12=What I Need To Do (Live)
TTITLE13=Please Come To Boston (Live) (Bonus Track)
EXTD=
EXTT0=
EXTT1=
EXTT2=
EXTT3=
EXTT4=
EXTT5=
EXTT6=
EXTT7=
EXTT8=
EXTT9=
EXTT10=
EXTT11=
EXTT12=
EXTT13=
PLAYORDER=
